<?xml version="1.0" encoding="utf-8"?>
<!-- Generator: Adobe Illustrator 15.0.2, SVG Export Plug-In . SVG Version: 6.00 Build 0)  -->
<!DOCTYPE svg PUBLIC "-//W3C//DTD SVG 1.1//EN" "http://www.w3.org/Graphics/SVG/1.1/DTD/svg11.dtd">
<svg version="1.1" xmlns="http://www.w3.org/2000/svg" xmlns:xlink="http://www.w3.org/1999/xlink" x="0px" y="0px" width="202px"
	 height="223.667px" viewBox="0 0 202 223.667" enable-background="new 0 0 202 223.667" xml:space="preserve">
<g id="fond">
	<rect width="202" height="223.667"/>
</g>
<g id="compacte">
	<g>
		<path fill="#FFFFFF" d="M99.895,28.369c-30.973,0-56.08,25.108-56.08,56.079c0,30.977,25.107,56.088,56.08,56.088
			c30.976,0,56.084-25.111,56.084-56.088C155.979,53.478,130.87,28.369,99.895,28.369z M130.141,60.829
			c-2.597,0.09-4.39-1.462-4.471-3.818c-0.029-0.864,0.194-1.62,0.786-2.504c0.579-1.134,0.703-1.264,0.688-1.757
			c-0.053-1.485-2.295-1.541-2.909-1.512c-8.419,0.278-10.638,11.64-12.437,20.878l-0.881,4.872
			c4.848,0.709,8.289-0.165,10.209-1.407c2.703-1.755-0.756-3.558-0.32-5.553c0.442-2.034,2.292-3.016,3.763-3.057
			c2.058-0.051,3.526,2.084,3.479,4.251c-0.073,3.582-4.825,8.503-14.329,8.302c-1.158-0.027-2.225-0.108-3.217-0.228l-1.793,9.897
			c-1.605,7.496-3.74,17.736-11.371,26.672c-6.555,7.792-13.209,9.004-16.188,9.104c-5.574,0.188-9.27-2.783-9.4-6.75
			c-0.129-3.84,3.268-5.936,5.496-6.011c2.975-0.099,5.033,2.056,5.111,4.54c0.076,2.104-1.021,2.76-1.748,3.156
			c-0.484,0.39-1.215,0.787-1.188,1.652c0.018,0.372,0.416,1.224,1.654,1.186c2.355-0.083,3.92-1.248,5.014-2.026
			c5.43-4.525,7.52-12.409,10.256-26.761l0.574-3.481c0.934-4.667,1.969-9.872,3.547-15.059c-3.828-2.882-6.121-6.454-11.271-7.851
			c-3.527-0.958-5.68-0.145-7.191,1.768c-1.791,2.266-1.197,5.214,0.533,6.942l2.859,3.163c3.506,4.05,5.422,7.202,4.701,11.441
			c-1.145,6.768-9.207,11.961-18.742,9.026c-8.137-2.507-9.656-8.268-8.68-11.441c0.861-2.793,3.08-3.321,5.252-2.655
			c2.324,0.719,3.234,3.544,2.57,5.713c-0.074,0.232-0.193,0.619-0.438,1.14c-0.27,0.597-0.77,1.122-0.984,1.821
			c-0.523,1.703,1.812,2.914,3.439,3.413c3.641,1.118,7.191-0.784,8.092-3.731c0.838-2.706-0.875-4.595-1.584-5.319l-3.447-3.691
			c-1.576-1.756-5.047-6.653-3.354-12.151c0.652-2.121,2.027-4.37,4.02-5.859c4.211-3.137,8.787-3.652,13.146-2.399
			c5.641,1.622,8.35,5.352,11.863,8.233c1.967-5.769,4.691-11.415,8.791-16.18c3.703-4.34,8.676-7.484,14.373-7.68
			c5.692-0.188,9.995,2.393,10.137,6.477C134.61,57.333,133.613,60.713,130.141,60.829z"/>
		<g>
			<g>
				<path fill="#FFFFFF" d="M120.717,163.885c5.665,0,9.465,4.094,9.465,9.757c0,5.337-3.873,9.758-9.465,9.758
					c-5.627,0-9.502-4.421-9.502-9.758C111.215,167.979,115.016,163.885,120.717,163.885z M120.717,180.624
					c4.019,0,5.81-3.654,5.81-6.982c0-3.543-2.155-6.979-5.81-6.979c-3.689,0-5.846,3.436-5.846,6.979
					C114.871,176.97,116.66,180.624,120.717,180.624z"/>
			</g>
			<path fill="#FFFFFF" d="M110.744,165.62v-1.297h-4.934v-1.772c0-2.521,0.365-4.423,3.324-4.423c0.057,0,0.113,0.004,0.17,0.006
				c0.006,0,0.006-0.009,0.014-0.009c0.818,0.061,1.502-0.609,1.549-1.43l0.061-1.125c-0.695-0.11-1.428-0.22-2.303-0.22
				c-5.078,0-6.248,2.96-6.248,7.493v1.479H97.99v1.447c0.111,0.75,0.754,1.327,1.537,1.327c0.004,0,0.008,0.004,0.012,0.004h2.838
				v15.86h1.893c0.004,0,0.002-0.002,0.006-0.002c0.785,0,1.43-0.589,1.535-1.346v-14.513h3.436
				C110.059,167.075,110.707,166.429,110.744,165.62z"/>
			<path fill="#FFFFFF" d="M64.988,164.323c-0.006,0-0.01,0.004-0.018,0.004c-0.725,0-1.426,0.498-1.73,1.17l-4.729,14.249h-0.072
				l-4.623-14.241c-0.303-0.676-1.008-1.178-1.736-1.178c-0.006,0-0.01-0.004-0.018-0.004h-2.395l6.322,17.396
				c0.221,0.621,0.66,1.571,0.66,1.973c0,0.365-1.025,4.604-4.096,4.604c-0.076,0-0.152-0.008-0.227-0.014
				c-0.783-0.043-1.375,0.504-1.508,1.347l-0.092,1.189c0.621,0.109,1.244,0.256,2.34,0.256c4.531,0,5.883-4.131,7.162-7.711
				l6.871-19.041H64.988z"/>
			<path fill="#FFFFFF" d="M43.15,168.109c-2.838-1.451-5.941-2.438-5.996-5.357c0.01-3.103,2.859-3.917,5.057-3.914
				c0.008-0.002,0.018-0.002,0.023-0.002c0.953,0,1.717,0.095,2.461,0.259c0.01,0,0.008-0.012,0.02-0.012
				c0.787,0.057,1.447-0.559,1.541-1.334l0.062-1.127c-1.439-0.357-2.945-0.539-4.254-0.539c-4.777,0.029-8.322,2.433-8.334,7.018
				c0.006,4.009,2.709,5.562,5.615,6.97c2.85,1.37,5.971,2.502,5.998,5.81c-0.018,3.452-3.348,4.726-5.643,4.729
				c-1.344-0.004-2.801-0.339-4.029-0.727c-0.77-0.127-1.4,0.553-1.5,1.452l-0.104,1.004c1.688,0.546,3.418,1.021,5.158,1.021
				c0,0,0.002,0,0.006,0s0.008,0,0.016,0c5.35-0.039,9.508-2.173,9.523-7.712C48.764,171.374,46.043,169.58,43.15,168.109z"/>
			<path fill="#FFFFFF" d="M95.107,182.962c0.002,0,0.002-0.002,0.004-0.002c0.742,0,1.359-0.519,1.518-1.215v-10.733
				c0-4.057-1.717-7.127-6.471-7.127c-1.68,0-4.492,0.952-5.771,3.619c-0.988-2.522-3.143-3.619-5.299-3.619
				c-2.742,0-4.605,0.986-5.92,3.144h-0.074v-1.159c-0.012-0.853-0.701-1.542-1.557-1.542c-0.006,0-0.01-0.004-0.016-0.004h-1.643
				v18.639h1.859c0.002,0,0.002-0.002,0.004-0.002c0.861,0,1.559-0.698,1.559-1.558c0-0.022,0.008-0.032,0.014-0.048v-7.783
				c0-3.473,1.387-6.908,4.895-6.908c2.777,0,3.328,2.887,3.328,5.188v11.11h1.885c0.002,0,0.002-0.002,0.006-0.002
				c0.812,0,1.471-0.624,1.543-1.417v-7.972c0-3.473,1.389-6.908,4.896-6.908c2.777,0,3.326,2.887,3.326,5.188v11.11H95.107z"/>
			<path fill="#FFFFFF" d="M148.192,182.962c0.003,0,0.003-0.002,0.006-0.002c0.836,0,1.512-0.66,1.55-1.486v-9.584
				c0-5.007-2.157-8.005-6.981-8.005c-2.594,0-5.077,1.28-6.102,3.401h-0.072v-1.394c0-0.002-0.004-0.002-0.004-0.005
				c0-0.862-0.697-1.561-1.558-1.561c-0.008,0-0.011-0.004-0.017-0.004h-1.75v18.639h1.888c0.001,0,0.001-0.002,0.005-0.002
				c0.816,0,1.479-0.633,1.544-1.434v-7.189c0-4.53,1.756-7.674,5.664-7.674c2.999,0.183,3.946,2.302,3.946,6.65v9.648H148.192z"/>
			<path fill="#FFFFFF" d="M166.685,164.323c-0.006,0-0.009,0.004-0.018,0.004c-0.724,0-1.426,0.498-1.73,1.17l-4.726,14.249h-0.075
				l-4.623-14.241c-0.303-0.676-1.008-1.178-1.736-1.178c-0.006,0-0.011-0.004-0.016-0.004h-2.395l6.321,17.396
				c0.22,0.621,0.66,1.571,0.66,1.973c0,0.365-1.025,4.604-4.095,4.604c-0.077,0-0.152-0.008-0.229-0.014
				c-0.781-0.043-1.373,0.504-1.505,1.347l-0.093,1.189c0.621,0.109,1.244,0.256,2.339,0.256c4.532,0,5.885-4.131,7.164-7.711
				l6.87-19.041H166.685z"/>
		</g>
	</g>
</g>
<g id="rectangle">
</g>
<g id="carré">
</g>
</svg>
