<?xml version="1.0" encoding="utf-8"?>
<!-- Generator: Adobe Illustrator 15.0.2, SVG Export Plug-In . SVG Version: 6.00 Build 0)  -->
<!DOCTYPE svg PUBLIC "-//W3C//DTD SVG 1.1//EN" "http://www.w3.org/Graphics/SVG/1.1/DTD/svg11.dtd">
<svg version="1.1" xmlns="http://www.w3.org/2000/svg" xmlns:xlink="http://www.w3.org/1999/xlink" x="0px" y="0px"
	 width="289.333px" height="122.833px" viewBox="0 0 289.333 122.833" enable-background="new 0 0 289.333 122.833"
	 xml:space="preserve">
<g id="fond">
</g>
<g id="compacte">
</g>
<g id="rectangle">
</g>
<g id="carré">
	<rect y="0" fill="#FFFFFF" width="289.333" height="122.833"/>
	<g>
		<g>
			<circle cx="68.721" cy="59.184" r="39.185"/>
			<path fill="#FFFFFF" d="M85.853,34.499c-3.981,0.136-7.456,2.332-10.042,5.365c-2.863,3.33-4.769,7.275-6.142,11.304
				c-2.455-2.011-4.349-4.618-8.289-5.75c-3.045-0.877-6.244-0.516-9.185,1.676c-1.393,1.041-2.354,2.612-2.81,4.093
				c-1.181,3.842,1.242,7.263,2.344,8.491l2.409,2.579c0.496,0.506,1.692,1.826,1.108,3.719c-0.63,2.059-3.112,3.389-5.656,2.605
				c-1.137-0.35-2.768-1.195-2.403-2.387c0.151-0.486,0.5-0.854,0.689-1.271c0.169-0.361,0.253-0.635,0.305-0.797
				c0.465-1.514-0.171-3.488-1.795-3.991c-1.517-0.464-3.067-0.095-3.669,1.855c-0.683,2.22,0.38,6.245,6.065,7.997
				c6.661,2.047,12.295-1.58,13.094-6.311c0.505-2.96-0.835-5.163-3.283-7.993l-1.998-2.209c-1.209-1.208-1.625-3.268-0.373-4.85
				c1.056-1.337,2.559-1.906,5.025-1.236c3.597,0.976,5.2,3.472,7.874,5.485c-1.103,3.624-1.825,7.259-2.478,10.521l-0.401,2.43
				c-1.912,10.029-3.372,15.539-7.166,18.699c-0.764,0.545-1.858,1.359-3.505,1.416c-0.864,0.027-1.142-0.568-1.153-0.826
				c-0.02-0.604,0.49-0.883,0.829-1.156c0.508-0.277,1.275-0.736,1.222-2.203c-0.055-1.736-1.494-3.242-3.571-3.174
				c-1.558,0.049-3.931,1.516-3.842,4.201c0.093,2.771,2.674,4.85,6.569,4.715c2.082-0.07,6.73-0.914,11.311-6.363
				c5.332-6.242,6.823-13.398,7.943-18.633l1.254-6.918c0.693,0.085,1.438,0.143,2.247,0.161c6.642,0.141,9.962-3.297,10.013-5.8
				c0.032-1.514-0.994-3.006-2.433-2.969c-1.027,0.028-2.318,0.713-2.629,2.135c-0.303,1.395,2.113,2.655,0.226,3.879
				c-1.341,0.868-3.747,1.479-7.133,0.983l0.615-3.403c1.256-6.456,2.807-14.394,8.689-14.589c0.429-0.02,1.996,0.02,2.033,1.056
				c0.01,0.346-0.077,0.438-0.48,1.229c-0.415,0.618-0.57,1.145-0.552,1.749c0.058,1.647,1.311,2.731,3.125,2.667
				c2.426-0.081,3.124-2.441,3.083-3.656C92.837,36.17,89.83,34.367,85.853,34.499z"/>
		</g>
		<g>
			<g>
				<path d="M209.924,51.202c5.641,0,9.424,4.075,9.424,9.714c0,5.312-3.857,9.715-9.424,9.715c-5.6,0-9.461-4.402-9.461-9.715
					C200.463,55.277,204.246,51.202,209.924,51.202z M209.924,67.867c3.998,0,5.785-3.639,5.785-6.951
					c0-3.529-2.148-6.949-5.785-6.949c-3.674,0-5.82,3.42-5.82,6.949C204.104,64.229,205.885,67.867,209.924,67.867z"/>
			</g>
			<path d="M199.996,52.929v-1.292h-4.914v-1.765c0-2.51,0.365-4.403,3.309-4.403c0.057,0,0.113,0.003,0.17,0.006
				c0.008,0,0.006-0.009,0.014-0.009c0.818,0.061,1.496-0.607,1.541-1.424l0.061-1.12c-0.691-0.11-1.422-0.219-2.291-0.219
				c-5.061,0-6.223,2.947-6.223,7.461v1.472h-4.365v1.442c0.111,0.747,0.748,1.32,1.529,1.32c0.004,0,0.008,0.004,0.012,0.004h2.824
				v15.792h1.885c0.004,0,0.002-0.002,0.006-0.002c0.781,0,1.424-0.586,1.529-1.34v-14.45h3.42
				C199.311,54.378,199.957,53.734,199.996,52.929z"/>
			<path d="M154.436,51.637c-0.006,0-0.01,0.004-0.018,0.004c-0.721,0-1.418,0.497-1.725,1.165l-4.703,14.186h-0.074l-4.603-14.178
				c-0.302-0.672-1.002-1.172-1.729-1.172c-0.007,0-0.007-0.004-0.015-0.004h-2.387l6.296,17.32
				c0.217,0.621,0.654,1.566,0.654,1.967c0,0.363-1.018,4.58-4.075,4.58c-0.078,0-0.151-0.006-0.228-0.01
				c-0.78-0.041-1.371,0.5-1.501,1.342l-0.091,1.184c0.618,0.109,1.24,0.254,2.331,0.254c4.51,0,5.855-4.115,7.133-7.678
				l6.84-18.958H154.436z"/>
			<path d="M132.691,55.408c-2.824-1.445-5.915-2.427-5.969-5.335c0.008-3.089,2.847-3.899,5.033-3.897
				c0.01-0.001,0.018-0.001,0.024-0.001c0.95,0,1.708,0.095,2.452,0.257c0.01,0,0.008-0.011,0.02-0.011
				c0.783,0.056,1.44-0.556,1.534-1.328l0.062-1.123c-1.433-0.355-2.933-0.537-4.235-0.537c-4.757,0.029-8.287,2.422-8.298,6.987
				c0.006,3.992,2.698,5.538,5.591,6.939c2.835,1.365,5.945,2.492,5.973,5.783c-0.018,3.439-3.334,4.711-5.619,4.713
				c-1.337-0.002-2.789-0.338-4.014-0.729c-0.765-0.125-1.393,0.553-1.49,1.449l-0.105,1c1.681,0.545,3.405,1.016,5.136,1.016
				c0,0,0.002,0,0.006,0c0.004,0,0.008,0,0.016,0c5.327-0.039,9.466-2.162,9.481-7.68C138.283,58.659,135.571,56.872,132.691,55.408
				z"/>
			<path d="M184.426,70.195c0.002,0,0.002-0.002,0.004-0.002c0.74,0,1.354-0.518,1.512-1.209V58.297
				c0-4.039-1.709-7.096-6.445-7.096c-1.672,0-4.473,0.948-5.744,3.604c-0.984-2.513-3.133-3.604-5.277-3.604
				c-2.727,0-4.584,0.982-5.896,3.13h-0.07v-1.155c-0.012-0.849-0.697-1.535-1.549-1.535c-0.008,0-0.012-0.004-0.018-0.004h-1.639
				v18.558h1.855c0.002,0,0.002-0.002,0.004-0.002c0.857,0,1.551-0.693,1.551-1.553c0-0.021,0.008-0.031,0.014-0.047v-7.748
				c0-3.458,1.385-6.879,4.873-6.879c2.766,0,3.314,2.875,3.314,5.167v11.062h1.877c0.002,0,0.002-0.002,0.006-0.002
				c0.809,0,1.463-0.623,1.537-1.41v-7.938c0-3.458,1.383-6.879,4.877-6.879c2.762,0,3.307,2.875,3.307,5.167v11.062H184.426z"/>
			<path d="M237.277,70.195c0.004,0,0.004-0.002,0.008-0.002c0.834,0,1.504-0.66,1.541-1.48v-9.541c0-4.985-2.145-7.97-6.951-7.97
				c-2.578,0-5.053,1.274-6.072,3.386h-0.072v-1.387c0-0.002-0.004-0.002-0.004-0.006c0-0.858-0.695-1.554-1.551-1.554
				c-0.008,0-0.012-0.004-0.018-0.004h-1.744v18.558h1.883c0,0,0-0.002,0.006-0.002c0.811,0,1.471-0.631,1.533-1.43v-7.156
				c0-4.51,1.752-7.641,5.643-7.641c2.984,0.183,3.93,2.292,3.93,6.622v9.606H237.277z"/>
			<path d="M255.691,51.637c-0.006,0-0.01,0.004-0.016,0.004c-0.721,0-1.422,0.497-1.725,1.165l-4.703,14.186h-0.08l-4.602-14.178
				c-0.299-0.672-1.002-1.172-1.725-1.172c-0.008,0-0.012-0.004-0.018-0.004h-2.385l6.295,17.32
				c0.217,0.621,0.656,1.566,0.656,1.967c0,0.363-1.02,4.58-4.078,4.58c-0.074,0-0.152-0.006-0.227-0.01
				c-0.777-0.041-1.367,0.5-1.498,1.342l-0.094,1.184c0.619,0.109,1.238,0.254,2.33,0.254c4.514,0,5.859-4.115,7.133-7.678
				l6.84-18.958H255.691z"/>
		</g>
	</g>
</g>
</svg>
